# Alias OBJ Model File
# Exported from SketchUp, (c) 2000-2012 Trimble Navigation Limited
# File units = inches

mtllib Untitled.mtl

g Mesh1 Model

usemtl FrontColor
v -30.7434 0 69.094
vt 30.7434 -69.094
vn 0 -1 -0
v -3.37508e-14 0 3.55271e-14
vt 3.37508e-14 -3.55271e-14
v 44.4655 0 61.1716
vt -44.4655 -61.1716
f 1/1/1 2/2/1 3/3/1

v -75.2089 0 7.92247
vt 75.2089 -7.92247
f 4/4/1 2/2/1 1/1/1

v -44.4655 0 -61.1716
vt 44.4655 61.1716
f 4/4/1 5/5/1 2/2/1

v 30.7434 0 -69.094
vt -30.7434 69.094
f 6/6/1 2/2/1 5/5/1

v 75.2089 0 -7.92247
vt -75.2089 7.92247
f 7/7/1 2/2/1 6/6/1

f 7/7/1 3/3/1 2/2/1

